<svg xmlns="http://www.w3.org/2000/svg" width="129" height="60" fill="none" viewBox="0 0 129 60">
  <path fill="#131313" d="M0 60V0h129v30L84.806 60H0Z"/>
  <path fill="#fff" d="M36.078 22.95H28.23V45h-4.842V22.95H15.54v-3.978h20.538v3.978Zm8.848 9.882c-.96.624-1.662 1.332-2.106 2.124a5.118 5.118 0 0 0-.648 2.52c0 .66.114 1.254.342 1.782.228.528.534.978.918 1.35.396.36.852.642 1.368.846a4.86 4.86 0 0 0 1.674.288c1.056 0 2.022-.162 2.898-.486a8.399 8.399 0 0 0 2.376-1.386l-6.822-7.038ZM62.26 45h-4.356c-.456 0-.828-.054-1.116-.162-.276-.108-.57-.336-.882-.684l-1.8-1.854a13.339 13.339 0 0 1-3.834 2.196c-1.416.528-2.946.792-4.59.792a8.98 8.98 0 0 1-2.952-.504 8.227 8.227 0 0 1-2.574-1.494 7.643 7.643 0 0 1-1.836-2.34c-.456-.924-.684-1.962-.684-3.114 0-.816.132-1.584.396-2.304.264-.732.63-1.41 1.098-2.034a8.508 8.508 0 0 1 1.674-1.674 11.163 11.163 0 0 1 2.124-1.296c-.648-.9-1.116-1.776-1.404-2.628a8.102 8.102 0 0 1-.432-2.574c0-.9.162-1.752.486-2.556a6.171 6.171 0 0 1 1.44-2.124c.624-.6 1.392-1.074 2.304-1.422.912-.36 1.944-.54 3.096-.54 1.056 0 1.998.162 2.826.486.84.324 1.554.756 2.142 1.296.6.54 1.068 1.158 1.404 1.854.348.696.552 1.416.612 2.16l-2.826.594c-.528.108-.912-.12-1.152-.684a4.01 4.01 0 0 0-.432-.882 2.83 2.83 0 0 0-.612-.738 2.6 2.6 0 0 0-.846-.504 2.94 2.94 0 0 0-1.116-.198c-.504 0-.954.09-1.35.27a2.876 2.876 0 0 0-1.008.702c-.264.288-.468.63-.612 1.026a3.457 3.457 0 0 0-.216 1.224c0 .36.036.708.108 1.044.072.336.192.672.36 1.008.168.336.384.684.648 1.044.276.348.612.726 1.008 1.134l6.912 7.182a12.61 12.61 0 0 0 .954-2.394c.24-.84.396-1.692.468-2.556.036-.276.132-.498.288-.666.156-.168.372-.252.648-.252h2.772a15.716 15.716 0 0 1-.684 4.536 14.669 14.669 0 0 1-1.908 3.978L62.26 45Zm26.842-13.014c0 1.908-.318 3.66-.954 5.256-.636 1.596-1.53 2.97-2.682 4.122-1.152 1.152-2.538 2.046-4.158 2.682-1.62.636-3.42.954-5.4.954H65.99V18.972h9.918c1.98 0 3.78.324 5.4.972 1.62.636 3.006 1.53 4.158 2.682 1.152 1.14 2.046 2.508 2.682 4.104.636 1.596.954 3.348.954 5.256Zm-4.968 0c0-1.428-.192-2.706-.576-3.834-.372-1.14-.918-2.1-1.638-2.88a6.997 6.997 0 0 0-2.592-1.818c-1.008-.42-2.148-.63-3.42-.63H70.85v18.324h5.058c1.272 0 2.412-.21 3.42-.63a7.096 7.096 0 0 0 2.592-1.8c.72-.792 1.266-1.752 1.638-2.88.384-1.14.576-2.424.576-3.852Z"/>
</svg>
